<?xml version="1.0" standalone="no"?>
<!DOCTYPE svg PUBLIC "-//W3C//DTD SVG 20010904//EN"
 "http://www.w3.org/TR/2001/REC-SVG-20010904/DTD/svg10.dtd">
<svg version="1.0" xmlns="http://www.w3.org/2000/svg"
 width="248.000000pt" height="67.000000pt" viewBox="0 0 248.000000 67.000000"
 preserveAspectRatio="xMidYMid meet">

<g transform="translate(0.000000,67.000000) scale(0.100000,-0.100000)"
fill="#000000" stroke="none">
<path d="M0 335 l0 -335 1240 0 1240 0 0 335 0 335 -1240 0 -1240 0 0 -335z
m1020 -15 c0 -80 -4 -130 -10 -130 -6 0 -10 50 -10 130 0 80 4 130 10 130 6 0
10 -50 10 -130z m164 64 c21 -20 20 -30 -3 -53 -17 -17 -18 -21 -5 -32 8 -6
14 -20 14 -30 0 -10 8 -23 18 -28 15 -9 14 -10 -9 -11 -22 0 -28 7 -38 40 -9
29 -17 40 -31 40 -16 0 -20 -7 -20 -34 0 -19 6 -37 13 -39 6 -3 -1 -6 -18 -6
l-30 -1 0 85 0 85 47 0 c29 0 52 -6 62 -16z m376 -19 l-1 -30 -15 28 c-31 57
-104 23 -104 -48 0 -71 73 -105 104 -47 l15 27 1 -30 c0 -29 -2 -30 -48 -33
-69 -4 -97 20 -97 83 0 63 28 87 97 83 46 -3 48 -4 48 -33z m85 24 c-4 -5 -2
-22 4 -37 6 -15 16 -40 22 -57 l11 -30 20 50 c10 27 17 57 15 67 -4 12 0 18
13 18 16 0 14 -10 -18 -85 -19 -47 -39 -82 -43 -78 -4 4 -17 33 -29 63 -12 30
-28 65 -36 78 -14 21 -13 22 16 22 20 0 29 -4 25 -11z m-740 -45 l58 -27 -63
-29 c-75 -34 -93 -30 -24 5 l48 24 -49 26 c-66 34 -43 34 30 1z m438 -151
c-18 -2 -48 -2 -65 0 -18 2 -4 4 32 4 36 0 50 -2 33 -4z"/>
<path d="M1110 355 c0 -28 4 -35 19 -35 26 0 44 25 36 50 -4 13 -15 20 -31 20
-21 0 -24 -5 -24 -35z"/>
</g>
</svg>
